<svg width="40" height="40" xmlns="http://www.w3.org/2000/svg">
  <g fill="none" fill-rule="evenodd">
    <path
      d="M15.429 25.954c6.311 0 11.428-4.69 11.428-10.477 0-.655-.066-1.297-.191-1.92a12.51 12.51 0 00-2.095-.175c-6.311 0-11.428 4.69-11.428 10.476 0 .656.066 1.298.191 1.92.68.116 1.38.176 2.095.176z"
      fill="#344054" fill-rule="nonzero" />
    <path
      d="M13.334 25.778C8.023 24.878 4 20.608 4 15.478 4 9.692 9.117 5 15.429 5c5.596 0 10.253 3.688 11.237 8.557a12.508 12.508 0 00-2.095-.176c-6.311 0-11.428 4.69-11.428 10.476 0 .656.066 1.298.191 1.92v.001z"
      fill="#475467" />
    <path
      d="M15.428 25.954c6.312 0 11.43-4.69 11.43-10.477a9.68 9.68 0 00-.192-1.92C31.977 14.46 36 18.728 36 23.858c0 5.786-5.117 10.477-11.429 10.477-5.596 0-10.253-3.688-11.237-8.557.68.115 1.38.176 2.095.176h-.001z"
      fill="#667085" />
  </g>
</svg>