<svg width="195" height="43" viewBox="0 0 195 43" fill="none" xmlns="http://www.w3.org/2000/svg">
<path d="M15.3571 29.9464C23.8386 29.9464 30.7143 23.6438 30.7143 15.8691C30.7143 14.9879 30.6259 14.1257 30.457 13.2894C29.5447 13.1345 28.6041 13.0536 27.6428 13.0536C19.1613 13.0536 12.2857 19.3562 12.2857 27.131C12.2857 28.0121 12.374 28.8743 12.543 29.7106C13.4553 29.8655 14.3959 29.9464 15.3571 29.9464Z" fill="#98A2B3"/>
<path fill-rule="evenodd" clip-rule="evenodd" d="M12.543 29.7106C5.40547 28.4989 0 22.7627 0 15.8691C0 8.09434 6.87563 1.79169 15.3571 1.79169C22.8774 1.79169 29.1352 6.7467 30.457 13.2894C29.5447 13.1345 28.6041 13.0536 27.6429 13.0536C19.1613 13.0536 12.2857 19.3562 12.2857 27.131C12.2857 28.0121 12.374 28.8743 12.543 29.7106Z" fill="#D0D5DD"/>
<path fill-rule="evenodd" clip-rule="evenodd" d="M15.3571 29.9464C23.8386 29.9464 30.7142 23.6437 30.7142 15.869C30.7142 14.9879 30.6259 14.1257 30.457 13.2894C37.5945 14.501 42.9999 20.2373 42.9999 27.1309C42.9999 34.9056 36.1243 41.2083 27.6428 41.2083C20.1225 41.2083 13.8648 36.2533 12.5429 29.7106C13.4552 29.8654 14.3958 29.9464 15.3571 29.9464Z" fill="#EAECF0"/>
<path d="M184.425 23.9675V33.2235H181.391V17.6344H184.304V20.1717H184.496C184.855 19.3463 185.417 18.6832 186.181 18.1825C186.953 17.6818 187.923 17.4315 189.094 17.4315C190.156 17.4315 191.087 17.6547 191.885 18.1013C192.683 18.5411 193.303 19.1974 193.742 20.0702C194.182 20.9431 194.402 22.0222 194.402 23.3078V33.2235H191.367V23.6732C191.367 22.5432 191.073 21.6603 190.484 21.0243C189.896 20.3815 189.087 20.0601 188.059 20.0601C187.355 20.0601 186.729 20.2123 186.181 20.5168C185.64 20.8213 185.21 21.2678 184.892 21.8565C184.581 22.4384 184.425 23.142 184.425 23.9675Z" fill="#F9FAFB"/>
<path d="M172.288 39.3942C171.05 39.3942 169.984 39.2318 169.091 38.907C168.205 38.5823 167.481 38.1526 166.919 37.6181C166.358 37.0836 165.938 36.4983 165.661 35.8623L168.269 34.7865C168.452 35.0842 168.695 35.3988 169 35.7303C169.311 36.0686 169.731 36.3562 170.258 36.593C170.793 36.8298 171.48 36.9482 172.319 36.9482C173.469 36.9482 174.42 36.6674 175.171 36.1059C175.922 35.551 176.297 34.6647 176.297 33.4468V30.3818H176.104C175.922 30.7133 175.658 31.082 175.313 31.488C174.974 31.894 174.508 32.2458 173.912 32.5435C173.317 32.8412 172.542 32.9901 171.588 32.9901C170.357 32.9901 169.247 32.7025 168.259 32.1274C167.278 31.5455 166.5 30.6896 165.925 29.5597C165.356 28.423 165.072 27.0258 165.072 25.3681C165.072 23.7104 165.353 22.2895 165.915 21.1054C166.483 19.9214 167.261 19.0147 168.249 18.3855C169.237 17.7495 170.357 17.4315 171.608 17.4315C172.576 17.4315 173.357 17.5938 173.953 17.9186C174.548 18.2366 175.012 18.6088 175.343 19.035C175.681 19.4613 175.942 19.8368 176.125 20.1616H176.348V17.6344H179.322V33.5686C179.322 34.9083 179.01 36.0078 178.388 36.867C177.765 37.7263 176.923 38.3624 175.861 38.7751C174.805 39.1878 173.614 39.3942 172.288 39.3942ZM172.258 30.4731C173.131 30.4731 173.868 30.2701 174.47 29.8641C175.079 29.4514 175.539 28.8628 175.851 28.0982C176.169 27.3269 176.328 26.4033 176.328 25.3275C176.328 24.2787 176.172 23.3552 175.861 22.5568C175.55 21.7584 175.093 21.1359 174.491 20.6893C173.888 20.236 173.144 20.0093 172.258 20.0093C171.344 20.0093 170.583 20.2462 169.974 20.7198C169.365 21.1866 168.905 21.8226 168.594 22.6278C168.29 23.433 168.137 24.3329 168.137 25.3275C168.137 26.3492 168.293 27.2457 168.604 28.017C168.915 28.7883 169.375 29.3905 169.984 29.8236C170.6 30.2566 171.358 30.4731 172.258 30.4731Z" fill="#F9FAFB"/>
<path d="M160.636 33.2235V17.6344H163.67V33.2235H160.636ZM162.168 15.2291C161.64 15.2291 161.187 15.0532 160.808 14.7013C160.436 14.3427 160.25 13.9165 160.25 13.4225C160.25 12.9218 160.436 12.4956 160.808 12.1437C161.187 11.7851 161.64 11.6058 162.168 11.6058C162.696 11.6058 163.146 11.7851 163.518 12.1437C163.897 12.4956 164.086 12.9218 164.086 13.4225C164.086 13.9165 163.897 14.3427 163.518 14.7013C163.146 15.0532 162.696 15.2291 162.168 15.2291Z" fill="#F9FAFB"/>
<path d="M158.995 21.4404L156.245 21.9275C156.13 21.5757 155.947 21.2408 155.697 20.9228C155.453 20.6048 155.122 20.3443 154.702 20.1413C154.283 19.9383 153.758 19.8368 153.129 19.8368C152.27 19.8368 151.553 20.0296 150.977 20.4153C150.402 20.7942 150.115 21.2847 150.115 21.8869C150.115 22.4079 150.308 22.8274 150.693 23.1454C151.079 23.4634 151.701 23.7239 152.561 23.9269L155.037 24.4953C156.472 24.8268 157.541 25.3376 158.244 26.0278C158.948 26.7179 159.3 27.6144 159.3 28.7173C159.3 29.651 159.029 30.4832 158.488 31.214C157.953 31.938 157.206 32.5063 156.245 32.919C155.291 33.3318 154.185 33.5381 152.926 33.5381C151.18 33.5381 149.756 33.166 148.653 32.4217C147.55 31.6707 146.874 30.605 146.624 29.2248L149.557 28.7782C149.739 29.5428 150.115 30.1213 150.683 30.5137C151.252 30.8994 151.992 31.0922 152.906 31.0922C153.9 31.0922 154.695 30.8858 155.291 30.4731C155.886 30.0536 156.184 29.5428 156.184 28.9406C156.184 28.4534 156.001 28.0441 155.636 27.7125C155.277 27.381 154.726 27.1306 153.982 26.9615L151.343 26.383C149.888 26.0515 148.812 25.5237 148.115 24.7997C147.425 24.0758 147.08 23.159 147.08 22.0493C147.08 21.1291 147.337 20.324 147.852 19.6338C148.366 18.9437 149.076 18.4058 149.983 18.0201C150.89 17.6277 151.928 17.4315 153.099 17.4315C154.783 17.4315 156.11 17.7968 157.077 18.5276C158.045 19.2515 158.684 20.2225 158.995 21.4404Z" fill="#F9FAFB"/>
<path d="M139.259 33.5381C137.723 33.5381 136.4 33.21 135.291 32.5537C134.188 31.8906 133.335 30.9603 132.733 29.7627C132.138 28.5583 131.84 27.1476 131.84 25.5305C131.84 23.9337 132.138 22.5263 132.733 21.3084C133.335 20.0905 134.174 19.1399 135.25 18.4565C136.333 17.7731 137.598 17.4315 139.046 17.4315C139.925 17.4315 140.778 17.5769 141.603 17.8679C142.429 18.1588 143.17 18.6155 143.826 19.238C144.482 19.8605 145 20.669 145.379 21.6636C145.758 22.6515 145.947 23.8525 145.947 25.2666V26.3424H133.555V24.069H142.974C142.974 23.2706 142.811 22.5635 142.486 21.9478C142.162 21.3253 141.705 20.8348 141.116 20.4762C140.534 20.1176 139.851 19.9383 139.066 19.9383C138.214 19.9383 137.469 20.148 136.833 20.5675C136.204 20.9803 135.717 21.5216 135.372 22.1914C135.034 22.8545 134.864 23.5751 134.864 24.3532V26.1293C134.864 27.1712 135.047 28.0576 135.412 28.7883C135.785 29.5191 136.302 30.0773 136.965 30.4629C137.628 30.8418 138.403 31.0313 139.289 31.0313C139.865 31.0313 140.389 30.9501 140.863 30.7877C141.336 30.6186 141.746 30.3682 142.091 30.0367C142.436 29.7051 142.7 29.2958 142.882 28.8086L145.754 29.3262C145.524 30.172 145.112 30.9129 144.516 31.5489C143.928 32.1781 143.187 32.6687 142.294 33.0205C141.407 33.3656 140.396 33.5381 139.259 33.5381Z" fill="#F9FAFB"/>
<path d="M120.888 33.2235H114.159V12.4381H121.101C123.138 12.4381 124.887 12.8542 126.348 13.6865C127.809 14.5119 128.929 15.6994 129.707 17.2488C130.492 18.7915 130.885 20.642 130.885 22.8004C130.885 24.9655 130.489 26.8262 129.697 28.3824C128.912 29.9386 127.776 31.1362 126.287 31.9752C124.799 32.8074 122.999 33.2235 120.888 33.2235ZM117.295 30.4833H120.715C122.299 30.4833 123.615 30.1856 124.663 29.5901C125.712 28.988 126.497 28.1185 127.018 26.9818C127.539 25.8384 127.799 24.4445 127.799 22.8004C127.799 21.1698 127.539 19.7861 127.018 18.6494C126.504 17.5127 125.736 16.65 124.714 16.0614C123.692 15.4727 122.424 15.1784 120.908 15.1784H117.295V30.4833Z" fill="#F9FAFB"/>
<path d="M105.861 33.5381C104.325 33.5381 103.002 33.21 101.892 32.5537C100.789 31.8906 99.9369 30.9603 99.3347 29.7627C98.7393 28.5583 98.4416 27.1476 98.4416 25.5305C98.4416 23.9337 98.7393 22.5263 99.3347 21.3084C99.9369 20.0905 100.776 19.1399 101.852 18.4565C102.934 17.7731 104.2 17.4315 105.648 17.4315C106.527 17.4315 107.38 17.5769 108.205 17.8679C109.031 18.1588 109.771 18.6155 110.428 19.238C111.084 19.8605 111.602 20.669 111.981 21.6636C112.359 22.6515 112.549 23.8525 112.549 25.2666V26.3424H100.157V24.069H109.575C109.575 23.2706 109.413 22.5635 109.088 21.9478C108.763 21.3253 108.307 20.8348 107.718 20.4762C107.136 20.1176 106.453 19.9383 105.668 19.9383C104.815 19.9383 104.071 20.148 103.435 20.5675C102.806 20.9803 102.319 21.5216 101.974 22.1914C101.635 22.8545 101.466 23.5751 101.466 24.3532V26.1293C101.466 27.1712 101.649 28.0576 102.014 28.7883C102.386 29.5191 102.904 30.0773 103.567 30.4629C104.23 30.8418 105.005 31.0313 105.891 31.0313C106.466 31.0313 106.991 30.9501 107.464 30.7877C107.938 30.6186 108.347 30.3682 108.692 30.0367C109.037 29.7051 109.301 29.2958 109.484 28.8086L112.356 29.3262C112.126 30.172 111.713 30.9129 111.118 31.5489C110.529 32.1781 109.788 32.6687 108.895 33.0205C108.009 33.3656 106.997 33.5381 105.861 33.5381Z" fill="#F9FAFB"/>
<path d="M97.9532 17.6344V20.0702H89.438V17.6344H97.9532ZM91.7216 13.8995H94.7562V28.6462C94.7562 29.2349 94.8442 29.6781 95.0201 29.9758C95.196 30.2667 95.4227 30.4663 95.7001 30.5746C95.9842 30.6761 96.2921 30.7268 96.6236 30.7268C96.8672 30.7268 97.0803 30.7099 97.263 30.6761C97.4457 30.6422 97.5878 30.6152 97.6893 30.5949L98.2373 33.1017C98.0614 33.1694 97.8111 33.237 97.4863 33.3047C97.1615 33.3791 96.7556 33.4197 96.2684 33.4265C95.47 33.44 94.7258 33.2979 94.0356 33.0002C93.3455 32.7025 92.7873 32.2424 92.361 31.6199C91.9347 30.9974 91.7216 30.216 91.7216 29.2755V13.8995Z" fill="#F9FAFB"/>
<path d="M80.9419 33.5686C79.9541 33.5686 79.0609 33.3859 78.2625 33.0205C77.4641 32.6484 76.8315 32.1105 76.3646 31.4068C75.9045 30.7031 75.6745 29.8405 75.6745 28.8188C75.6745 27.9392 75.8437 27.2152 76.182 26.6469C76.5203 26.0785 76.977 25.6286 77.5521 25.297C78.1272 24.9655 78.77 24.7152 79.4804 24.546C80.1909 24.3768 80.9148 24.2483 81.6523 24.1603C82.5861 24.0521 83.3439 23.9641 83.9257 23.8965C84.5076 23.822 84.9305 23.7036 85.1944 23.5412C85.4583 23.3788 85.5902 23.115 85.5902 22.7496V22.6786C85.5902 21.7922 85.3399 21.1054 84.8392 20.6183C84.3452 20.1311 83.6077 19.8875 82.6267 19.8875C81.605 19.8875 80.7998 20.1142 80.2112 20.5675C79.6293 21.0141 79.2267 21.5114 79.0034 22.0595L76.1515 21.4099C76.4898 20.4627 76.9837 19.6981 77.6333 19.1162C78.2896 18.5276 79.044 18.1013 79.8965 17.8374C80.7491 17.5668 81.6456 17.4315 82.5861 17.4315C83.2085 17.4315 83.8682 17.5059 84.5651 17.6547C85.2688 17.7968 85.9251 18.0607 86.5341 18.4464C87.1498 18.832 87.6539 19.3835 88.0463 20.1007C88.4387 20.8111 88.6349 21.7347 88.6349 22.8714V33.2235H85.6714V31.0922H85.5496C85.3534 31.4846 85.0591 31.8703 84.6666 32.2492C84.2742 32.6281 83.7701 32.9427 83.1544 33.1931C82.5387 33.4434 81.8012 33.5686 80.9419 33.5686ZM81.6016 31.1328C82.4406 31.1328 83.1578 30.967 83.7532 30.6355C84.3554 30.3039 84.8121 29.8709 85.1233 29.3364C85.4414 28.7951 85.6004 28.2166 85.6004 27.6009V25.5914C85.4921 25.6996 85.2823 25.8011 84.9711 25.8958C84.6666 25.9838 84.3182 26.0616 83.9257 26.1293C83.5333 26.1902 83.151 26.2477 82.7789 26.3018C82.4068 26.3492 82.0955 26.3898 81.8452 26.4236C81.2565 26.498 80.7186 26.6232 80.2315 26.7991C79.7511 26.975 79.3654 27.2288 79.0745 27.5603C78.7903 27.8851 78.6482 28.3181 78.6482 28.8594C78.6482 29.6104 78.9256 30.1788 79.4804 30.5644C80.0352 30.9433 80.7423 31.1328 81.6016 31.1328Z" fill="#F9FAFB"/>
<path d="M53 12.4381H56.8059L63.4232 28.5955H63.6667L70.284 12.4381H74.0899V33.2235H71.1061V18.1825H70.9132L64.7831 33.1931H62.3068L56.1767 18.1724H55.9838V33.2235H53V12.4381Z" fill="#F9FAFB"/>
</svg>
