<svg width="143" height="32" viewBox="0 0 143 32" fill="none" xmlns="http://www.w3.org/2000/svg">
<path d="M11.4286 22.2857C17.7404 22.2857 22.8572 17.5954 22.8572 11.8095C22.8572 11.1538 22.7914 10.5121 22.6657 9.8898C21.9868 9.77454 21.2868 9.71429 20.5714 9.71429C14.2596 9.71429 9.14288 14.4046 9.14288 20.1905C9.14288 20.8462 9.2086 21.4879 9.33434 22.1102C10.0133 22.2255 10.7133 22.2857 11.4286 22.2857Z" fill="#344054"/>
<path fill-rule="evenodd" clip-rule="evenodd" d="M9.33432 22.1102C4.02267 21.2085 0 16.9396 0 11.8095C0 6.02369 5.11675 1.33334 11.4286 1.33334C17.0251 1.33334 21.682 5.02079 22.6657 9.8898C21.9868 9.77454 21.2868 9.7143 20.5714 9.7143C14.2596 9.7143 9.14286 14.4046 9.14286 20.1905C9.14286 20.8462 9.20858 21.4879 9.33432 22.1102Z" fill="#475467"/>
<path fill-rule="evenodd" clip-rule="evenodd" d="M11.4285 22.2857C17.7404 22.2857 22.8571 17.5953 22.8571 11.8095C22.8571 11.1537 22.7914 10.5121 22.6657 9.88974C27.9773 10.7915 32 15.0603 32 20.1904C32 25.9763 26.8832 30.6666 20.5714 30.6666C14.9749 30.6666 10.318 26.9792 9.33429 22.1102C10.0132 22.2254 10.7132 22.2857 11.4285 22.2857Z" fill="#667085"/>
<path d="M135.568 16.5227V23H133.445V12.0909H135.483V13.8665H135.618C135.869 13.2888 136.262 12.8248 136.797 12.4744C137.337 12.124 138.016 11.9489 138.835 11.9489C139.579 11.9489 140.23 12.1051 140.789 12.4176C141.347 12.7254 141.78 13.1846 142.088 13.7954C142.396 14.4062 142.55 15.1614 142.55 16.0611V23H140.426V16.3167C140.426 15.526 140.22 14.9081 139.808 14.4631C139.396 14.0132 138.831 13.7883 138.111 13.7883C137.619 13.7883 137.181 13.8949 136.797 14.1079C136.418 14.321 136.118 14.6335 135.895 15.0454C135.677 15.4526 135.568 15.9451 135.568 16.5227Z" fill="#101828"/>
<path d="M127.075 27.3182C126.208 27.3182 125.463 27.2045 124.838 26.9773C124.217 26.75 123.711 26.4493 123.318 26.0753C122.925 25.7012 122.631 25.2917 122.437 24.8466L124.262 24.0937C124.39 24.3021 124.561 24.5222 124.774 24.7542C124.992 24.991 125.285 25.1922 125.654 25.3579C126.028 25.5237 126.509 25.6065 127.096 25.6065C127.901 25.6065 128.566 25.41 129.092 25.017C129.617 24.6288 129.88 24.0085 129.88 23.1562V21.0114H129.745C129.617 21.2434 129.433 21.5014 129.191 21.7855C128.955 22.0696 128.628 22.3158 128.211 22.5241C127.795 22.7325 127.252 22.8366 126.585 22.8366C125.723 22.8366 124.947 22.6354 124.255 22.2329C123.569 21.8257 123.024 21.2268 122.622 20.4361C122.224 19.6406 122.025 18.6629 122.025 17.5028C122.025 16.3428 122.222 15.3485 122.615 14.5199C123.012 13.6913 123.557 13.0568 124.248 12.6165C124.939 12.1714 125.723 11.9489 126.599 11.9489C127.276 11.9489 127.823 12.0625 128.24 12.2898C128.656 12.5123 128.981 12.7727 129.213 13.071C129.449 13.3693 129.632 13.6321 129.76 13.8594H129.916V12.0909H131.997V23.2415C131.997 24.179 131.779 24.9484 131.343 25.5497C130.908 26.151 130.318 26.5961 129.575 26.8849C128.836 27.1738 128.003 27.3182 127.075 27.3182ZM127.054 21.0753C127.664 21.0753 128.18 20.9332 128.602 20.6491C129.028 20.3603 129.35 19.9484 129.568 19.4133C129.79 18.8736 129.902 18.2273 129.902 17.4744C129.902 16.7405 129.793 16.0942 129.575 15.5355C129.357 14.9768 129.037 14.5412 128.616 14.2287C128.195 13.9114 127.674 13.7528 127.054 13.7528C126.414 13.7528 125.882 13.9185 125.456 14.25C125.029 14.5767 124.707 15.0218 124.49 15.5852C124.277 16.1487 124.17 16.7784 124.17 17.4744C124.17 18.1894 124.279 18.8168 124.497 19.3565C124.715 19.8963 125.037 20.3177 125.463 20.6207C125.894 20.9238 126.424 21.0753 127.054 21.0753Z" fill="#101828"/>
<path d="M118.921 23V12.0909H121.044V23H118.921ZM119.993 10.4077C119.624 10.4077 119.306 10.2846 119.041 10.0384C118.781 9.78741 118.651 9.48911 118.651 9.14347C118.651 8.79309 118.781 8.49479 119.041 8.24858C119.306 7.99764 119.624 7.87216 119.993 7.87216C120.362 7.87216 120.677 7.99764 120.938 8.24858C121.203 8.49479 121.335 8.79309 121.335 9.14347C121.335 9.48911 121.203 9.78741 120.938 10.0384C120.677 10.2846 120.362 10.4077 119.993 10.4077Z" fill="#101828"/>
<path d="M117.773 14.7542L115.848 15.0952C115.767 14.8489 115.64 14.6146 115.464 14.392C115.294 14.1695 115.062 13.9872 114.768 13.8452C114.475 13.7031 114.108 13.6321 113.667 13.6321C113.066 13.6321 112.564 13.767 112.162 14.0369C111.759 14.3021 111.558 14.6453 111.558 15.0667C111.558 15.4313 111.693 15.7249 111.963 15.9474C112.233 16.17 112.668 16.3523 113.27 16.4943L115.003 16.892C116.007 17.124 116.755 17.4815 117.247 17.9645C117.739 18.4474 117.986 19.0748 117.986 19.8466C117.986 20.5 117.796 21.0824 117.417 21.5937C117.043 22.1004 116.52 22.4981 115.848 22.7869C115.18 23.0757 114.406 23.2202 113.525 23.2202C112.304 23.2202 111.307 22.9597 110.535 22.4389C109.764 21.9133 109.29 21.1676 109.115 20.2017L111.167 19.8892C111.295 20.4242 111.558 20.8291 111.956 21.1037C112.354 21.3736 112.872 21.5085 113.511 21.5085C114.207 21.5085 114.764 21.3641 115.18 21.0753C115.597 20.7817 115.805 20.4242 115.805 20.0028C115.805 19.6619 115.677 19.3755 115.422 19.1435C115.171 18.9114 114.785 18.7363 114.264 18.6179L112.417 18.2131C111.399 17.981 110.647 17.6117 110.159 17.1051C109.676 16.5985 109.435 15.9569 109.435 15.1804C109.435 14.5364 109.614 13.973 109.974 13.49C110.334 13.0071 110.831 12.6307 111.466 12.3608C112.1 12.0862 112.827 11.9489 113.646 11.9489C114.825 11.9489 115.753 12.2045 116.43 12.7159C117.107 13.2225 117.555 13.902 117.773 14.7542Z" fill="#101828"/>
<path d="M103.961 23.2202C102.886 23.2202 101.961 22.9905 101.184 22.5312C100.413 22.0672 99.8159 21.4162 99.3945 20.5781C98.9779 19.7353 98.7695 18.7481 98.7695 17.6165C98.7695 16.499 98.9779 15.5142 99.3945 14.6619C99.8159 13.8096 100.403 13.1444 101.156 12.6662C101.913 12.188 102.799 11.9489 103.812 11.9489C104.428 11.9489 105.024 12.0507 105.602 12.2542C106.18 12.4578 106.698 12.7775 107.157 13.2131C107.617 13.6487 107.979 14.2145 108.244 14.9105C108.509 15.6018 108.642 16.4422 108.642 17.4318V18.1846H99.9698V16.5937H106.561C106.561 16.035 106.447 15.5402 106.22 15.1094C105.993 14.6738 105.673 14.3305 105.261 14.0795C104.854 13.8286 104.376 13.7031 103.826 13.7031C103.23 13.7031 102.709 13.8499 102.264 14.1435C101.824 14.4323 101.483 14.8111 101.241 15.2798C101.004 15.7438 100.886 16.2481 100.886 16.7926V18.0355C100.886 18.7647 101.014 19.3849 101.27 19.8963C101.53 20.4077 101.892 20.7983 102.356 21.0682C102.82 21.3333 103.362 21.4659 103.983 21.4659C104.385 21.4659 104.752 21.4091 105.083 21.2954C105.415 21.1771 105.701 21.0019 105.943 20.7699C106.184 20.5379 106.369 20.2514 106.497 19.9105L108.507 20.2727C108.346 20.8646 108.057 21.383 107.64 21.8281C107.228 22.2685 106.71 22.6117 106.085 22.8579C105.465 23.0994 104.757 23.2202 103.961 23.2202Z" fill="#101828"/>
<path d="M91.1053 23H86.3965V8.45456H91.2544C92.6796 8.45456 93.9036 8.74575 94.9263 9.32814C95.949 9.90579 96.7327 10.7368 97.2772 11.821C97.8264 12.9006 98.101 14.1956 98.101 15.706C98.101 17.2211 97.824 18.5232 97.2701 19.6122C96.7208 20.7012 95.9254 21.5393 94.8837 22.1264C93.842 22.7088 92.5826 23 91.1053 23ZM88.5911 21.0824H90.9846C92.0925 21.0824 93.0134 20.8741 93.7473 20.4574C94.4812 20.036 95.0305 19.4276 95.3951 18.6321C95.7596 17.8319 95.9419 16.8565 95.9419 15.706C95.9419 14.5649 95.7596 13.5966 95.3951 12.8012C95.0352 12.0057 94.4978 11.402 93.7828 10.9901C93.0679 10.5781 92.1801 10.3722 91.1195 10.3722H88.5911V21.0824Z" fill="#101828"/>
<path d="M80.5894 23.2202C79.5146 23.2202 78.5889 22.9905 77.8124 22.5312C77.0406 22.0672 76.444 21.4162 76.0226 20.5781C75.606 19.7353 75.3976 18.7481 75.3976 17.6165C75.3976 16.499 75.606 15.5142 76.0226 14.6619C76.444 13.8096 77.0312 13.1444 77.784 12.6662C78.5416 12.188 79.427 11.9489 80.4403 11.9489C81.0558 11.9489 81.6524 12.0507 82.23 12.2542C82.8077 12.4578 83.3261 12.7775 83.7854 13.2131C84.2447 13.6487 84.6069 14.2145 84.8721 14.9105C85.1372 15.6018 85.2698 16.4422 85.2698 17.4318V18.1846H76.5979V16.5937H83.1888C83.1888 16.035 83.0752 15.5402 82.8479 15.1094C82.6207 14.6738 82.3011 14.3305 81.8891 14.0795C81.4819 13.8286 81.0037 13.7031 80.4545 13.7031C79.8579 13.7031 79.337 13.8499 78.892 14.1435C78.4516 14.4323 78.1107 14.8111 77.8692 15.2798C77.6325 15.7438 77.5141 16.2481 77.5141 16.7926V18.0355C77.5141 18.7647 77.642 19.3849 77.8976 19.8963C78.1581 20.4077 78.5203 20.7983 78.9843 21.0682C79.4483 21.3333 79.9904 21.4659 80.6107 21.4659C81.0132 21.4659 81.3801 21.4091 81.7116 21.2954C82.043 21.1771 82.3295 21.0019 82.5709 20.7699C82.8124 20.5379 82.9971 20.2514 83.1249 19.9105L85.1349 20.2727C84.9739 20.8646 84.6851 21.383 84.2684 21.8281C83.8565 22.2685 83.338 22.6117 82.713 22.8579C82.0927 23.0994 81.3849 23.2202 80.5894 23.2202Z" fill="#101828"/>
<path d="M75.0559 12.0909V13.7954H69.097V12.0909H75.0559ZM70.6951 9.47726H72.8186V19.7969C72.8186 20.2088 72.8802 20.5189 73.0033 20.7273C73.1264 20.9309 73.285 21.0705 73.4791 21.1463C73.678 21.2173 73.8934 21.2528 74.1255 21.2528C74.2959 21.2528 74.4451 21.241 74.5729 21.2173C74.7007 21.1936 74.8002 21.1747 74.8712 21.1605L75.2547 22.9148C75.1316 22.9621 74.9564 23.0095 74.7291 23.0568C74.5019 23.1089 74.2178 23.1373 73.8769 23.142C73.3182 23.1515 72.7973 23.0521 72.3144 22.8437C71.8314 22.6354 71.4408 22.3134 71.1425 21.8778C70.8442 21.4422 70.6951 20.8954 70.6951 20.2372V9.47726Z" fill="#101828"/>
<path d="M63.1515 23.2415C62.4602 23.2415 61.8352 23.1136 61.2765 22.8579C60.7178 22.5975 60.2751 22.2211 59.9484 21.7287C59.6264 21.2363 59.4655 20.6326 59.4655 19.9176C59.4655 19.3021 59.5838 18.7954 59.8206 18.3977C60.0573 18 60.3769 17.6851 60.7794 17.4531C61.1818 17.2211 61.6316 17.0459 62.1288 16.9275C62.626 16.8092 63.1326 16.7192 63.6487 16.6577C64.3021 16.5819 64.8324 16.5203 65.2396 16.473C65.6468 16.4209 65.9427 16.3381 66.1274 16.2244C66.312 16.1108 66.4044 15.9261 66.4044 15.6704V15.6207C66.4044 15.0005 66.2292 14.5199 65.8788 14.179C65.5332 13.8381 65.0171 13.6676 64.3305 13.6676C63.6155 13.6676 63.0521 13.8262 62.6402 14.1435C62.233 14.456 61.9513 14.804 61.795 15.1875L59.7993 14.7329C60.036 14.0701 60.3816 13.535 60.8362 13.1278C61.2955 12.7159 61.8234 12.4176 62.42 12.2329C63.0166 12.0435 63.644 11.9489 64.3021 11.9489C64.7377 11.9489 65.1994 12.0009 65.687 12.1051C66.1795 12.2045 66.6388 12.3892 67.0649 12.6591C67.4958 12.929 67.8485 13.3149 68.1231 13.8167C68.3977 14.3139 68.5351 14.9602 68.5351 15.7557V23H66.4612V21.5085H66.376C66.2387 21.7831 66.0327 22.053 65.7581 22.3182C65.4834 22.5833 65.1307 22.8035 64.6998 22.9787C64.269 23.1539 63.7529 23.2415 63.1515 23.2415ZM63.6132 21.5369C64.2003 21.5369 64.7022 21.4209 65.1189 21.1889C65.5403 20.9569 65.8599 20.6539 66.0777 20.2798C66.3002 19.901 66.4115 19.4962 66.4115 19.0653V17.6591C66.3357 17.7348 66.1889 17.8059 65.9711 17.8721C65.7581 17.9337 65.5142 17.9882 65.2396 18.0355C64.965 18.0781 64.6975 18.1184 64.437 18.1562C64.1766 18.1894 63.9588 18.2178 63.7836 18.2415C63.3717 18.2936 62.9953 18.3811 62.6544 18.5042C62.3182 18.6274 62.0483 18.8049 61.8447 19.0369C61.6459 19.2642 61.5464 19.5672 61.5464 19.946C61.5464 20.4716 61.7405 20.8693 62.1288 21.1392C62.5171 21.4043 63.0119 21.5369 63.6132 21.5369Z" fill="#101828"/>
<path d="M43.598 8.45456H46.2614L50.8921 19.7614H51.0625L55.6932 8.45456H58.3565V23H56.2685V12.4744H56.1335L51.8438 22.9787H50.1108L45.821 12.4673H45.6861V23H43.598V8.45456Z" fill="#101828"/>
</svg>
